<?xml version="1.0" encoding="utf-8"?>
<!-- Generator: Adobe Illustrator 16.0.4, SVG Export Plug-In . SVG Version: 6.00 Build 0)  -->
<!DOCTYPE svg PUBLIC "-//W3C//DTD SVG 1.1//EN" "http://www.w3.org/Graphics/SVG/1.1/DTD/svg11.dtd">
<svg version="1.1" id="Layer_1" xmlns="http://www.w3.org/2000/svg" xmlns:xlink="http://www.w3.org/1999/xlink" x="0px" y="0px"
	 width="100px" height="100px" viewBox="0 0 100 100" enable-background="new 0 0 100 100" xml:space="preserve">
<polygon fill="#FFFFFF" points="8.667,83.5 16.003,68.458 12.335,35.271 26.167,15.532 48.852,9.166 62.834,14.166 76.169,24.645 
	84.379,24.833 91.5,35.271 87.105,44.5 77.253,45.5 74.834,58.703 60.167,73.767 50,75.727 43.493,75.727 33.783,77.604 18.714,90 
	10.328,90 "/>
<g>
	<path d="M12.135,51.32c2.594,9.555,2.682,18.207-3.155,26.589c-1.289,1.853,1.738,3.594,3.013,1.762
		c6.344-9.11,6.33-18.876,3.506-29.279C14.91,48.224,11.545,49.146,12.135,51.32L12.135,51.32z"/>
	<path d="M47.166,73.768c-11.5,0.303-21.057,4.506-28.106,13.736c-1.366,1.789,1.668,3.523,3.013,1.762
		c6.261-8.199,14.953-11.742,25.093-12.01C49.411,77.197,49.417,73.708,47.166,73.768L47.166,73.768z"/>
	<path d="M34.231,67.008c-0.071,0.139-0.157,0.283-0.275,0.441c-1.791,2.398-3.583,4.797-5.374,7.195
		c-3.132,4.192-6.265,8.387-9.396,12.58c-4.237,4.422-12.462-0.553-8.232-6.217l1.203-1.609c1.895-2.537,3.791-5.074,5.686-7.611
		c1.886-2.525,4.706-7.715,8.074-10.891c-0.91-0.687-1.781-1.41-2.604-2.193c-0.133,0.164-0.268,0.324-0.396,0.498
		c-3.563,4.77-7.126,9.541-10.688,14.31c-2.375,3.179-6.496,7.14-5.865,11.491c1.139,7.867,9.98,10.324,15.324,4.658
		c0.101-0.105,0.182-0.215,0.249-0.326c0.008-0.01,0.017-0.018,0.024-0.025c4.056-5.432,8.112-10.863,12.169-16.293
		c0.957-1.281,1.975-2.541,2.902-3.856C36.069,68.465,35.129,67.73,34.231,67.008z"/>
	<path d="M76.211,24.714C65.592,7.372,43.479,1.99,26.247,12.911c-8.553,5.42-13.91,14.783-15.419,24.637
		c-0.899,5.866-1.094,12.962,3.898,16.69c9.833,7.346,19.667,14.691,29.501,22.037c4.697,3.509,13.712-0.785,18.263-3.082
		c10.008-5.06,16.449-15.49,18.08-26.345c0.412-2.75-3.791-3.933-4.207-1.159c-1.536,10.243-7.073,18.572-16.074,23.738
		c-1.521,0.871-11.096,5.146-12.733,3.925c-0.825-0.617-1.648-1.231-2.472-1.848c-7.932-5.925-15.864-11.85-23.795-17.773
		c-2.112-1.576-6.335-4.731-6.335-4.731s-0.296-1.968-0.244-5.207c0.046-2.883,0.394-5.918,0.986-8.722
		c1.19-5.628,4.359-10.622,8.289-14.722c14.134-14.75,38.294-10.038,48.463,6.568C73.912,29.31,77.686,27.121,76.211,24.714
		L76.211,24.714z"/>
	<path d="M86.225,28.381c8.28,8.027-2.555,21.008-11.719,13.714C65.41,34.855,77.16,21.129,86.225,28.381
		c2.174,1.738,5.279-1.328,3.086-3.084c-5.59-4.47-12.662-4.443-18.136,0.224c-5.741,4.896-5.055,13.596-0.528,18.907
		c5.147,6.04,14.52,5.023,19.658-0.248c5.221-5.353,4.064-13.978-0.994-18.883C87.289,23.339,84.202,26.42,86.225,28.381z"/>
	<path d="M87.105,49.901c0,4.158,0,8.313,0,12.47c0,1.875,2.908,1.875,2.908,0c0-4.157,0-8.312,0-12.47
		C90.016,48.025,87.105,48.025,87.105,49.901L87.105,49.901z"/>
	<path d="M82.924,8.656c0,4.157,0,1.312,0,5.47c0,1.875,2.909,1.875,2.909,0c0-4.157,0-1.313,0-5.47
		C85.833,6.78,82.924,6.78,82.924,8.656L82.924,8.656z"/>
	<path d="M77.253,12.797c0,6.839,0,13.68,0,20.52c0,1.875,2.908,1.875,2.908,0c0-6.84,0-13.681,0-20.52
		C80.161,10.922,77.253,10.922,77.253,12.797L77.253,12.797z"/>
</g>
</svg>
